<mxfile host="app.diagrams.net" agent="Mozilla/5.0 (Windows NT 10.0; Win64; x64) AppleWebKit/537.36 (KHTML, like Gecko) Chrome/130.0.0.0 Safari/537.36" version="24.8.2" pages="2">
  <diagram name="第 1 页" id="GIeo1scaV3Ml2fQZqqxq">
    <mxGraphModel dx="2257" dy="790" grid="0" gridSize="10" guides="0" tooltips="1" connect="1" arrows="1" fold="1" page="1" pageScale="1" pageWidth="583" pageHeight="413" math="0" shadow="0">
      <root>
        <mxCell id="0" />
        <mxCell id="1" parent="0" />
        <mxCell id="VufkpgmZtVHJ2tAvtf22-115" value="" style="rounded=1;whiteSpace=wrap;html=1;" vertex="1" parent="1">
          <mxGeometry x="-426" y="506" width="1501" height="578" as="geometry" />
        </mxCell>
        <mxCell id="VufkpgmZtVHJ2tAvtf22-63" value="&lt;font color=&quot;#ffffff&quot;&gt;Text&lt;/font&gt;" style="text;html=1;align=center;verticalAlign=middle;whiteSpace=wrap;rounded=0;" vertex="1" parent="1">
          <mxGeometry x="-164" y="596" width="60" height="30" as="geometry" />
        </mxCell>
        <mxCell id="VufkpgmZtVHJ2tAvtf22-96" style="edgeStyle=orthogonalEdgeStyle;rounded=1;orthogonalLoop=1;jettySize=auto;html=1;exitX=0.5;exitY=1;exitDx=0;exitDy=0;exitPerimeter=0;entryX=0.5;entryY=0;entryDx=0;entryDy=0;" edge="1" parent="1" source="VufkpgmZtVHJ2tAvtf22-68" target="VufkpgmZtVHJ2tAvtf22-84">
          <mxGeometry relative="1" as="geometry" />
        </mxCell>
        <mxCell id="VufkpgmZtVHJ2tAvtf22-68" value="" style="fontColor=#0066CC;verticalAlign=top;verticalLabelPosition=bottom;labelPosition=center;align=center;html=1;outlineConnect=0;fillColor=#CCCCCC;strokeColor=#6881B3;gradientColor=none;gradientDirection=north;strokeWidth=2;shape=mxgraph.networks.firewall;rounded=1;" vertex="1" parent="1">
          <mxGeometry x="515" y="518" width="66" height="65" as="geometry" />
        </mxCell>
        <mxCell id="VufkpgmZtVHJ2tAvtf22-89" style="edgeStyle=orthogonalEdgeStyle;rounded=1;orthogonalLoop=1;jettySize=auto;html=1;exitX=0.5;exitY=1;exitDx=0;exitDy=0;exitPerimeter=0;" edge="1" parent="1" source="VufkpgmZtVHJ2tAvtf22-72" target="VufkpgmZtVHJ2tAvtf22-68">
          <mxGeometry relative="1" as="geometry" />
        </mxCell>
        <mxCell id="VufkpgmZtVHJ2tAvtf22-72" value="" style="html=1;outlineConnect=0;fillColor=#CCCCCC;strokeColor=#6881B3;gradientColor=none;gradientDirection=north;strokeWidth=2;shape=mxgraph.networks.cloud;fontColor=#ffffff;rounded=1;" vertex="1" parent="1">
          <mxGeometry x="471" y="348" width="155" height="86" as="geometry" />
        </mxCell>
        <mxCell id="VufkpgmZtVHJ2tAvtf22-80" value="" style="group" vertex="1" connectable="0" parent="1">
          <mxGeometry x="278" y="653" width="587" height="138" as="geometry" />
        </mxCell>
        <mxCell id="VufkpgmZtVHJ2tAvtf22-84" value="" style="rounded=1;whiteSpace=wrap;html=1;dashed=1;" vertex="1" parent="VufkpgmZtVHJ2tAvtf22-80">
          <mxGeometry x="-47" y="-30" width="634" height="168" as="geometry" />
        </mxCell>
        <mxCell id="VufkpgmZtVHJ2tAvtf22-74" value="" style="fontColor=#0066CC;verticalAlign=top;verticalLabelPosition=bottom;labelPosition=center;align=center;html=1;outlineConnect=0;fillColor=#CCCCCC;strokeColor=#6881B3;gradientColor=none;gradientDirection=north;strokeWidth=2;shape=mxgraph.networks.server;rounded=1;" vertex="1" parent="VufkpgmZtVHJ2tAvtf22-80">
          <mxGeometry x="229" width="90" height="100" as="geometry" />
        </mxCell>
        <mxCell id="VufkpgmZtVHJ2tAvtf22-75" value="" style="fontColor=#0066CC;verticalAlign=top;verticalLabelPosition=bottom;labelPosition=center;align=center;html=1;outlineConnect=0;fillColor=#CCCCCC;strokeColor=#6881B3;gradientColor=none;gradientDirection=north;strokeWidth=2;shape=mxgraph.networks.server;rounded=1;" vertex="1" parent="VufkpgmZtVHJ2tAvtf22-80">
          <mxGeometry x="443" y="4" width="90" height="100" as="geometry" />
        </mxCell>
        <mxCell id="VufkpgmZtVHJ2tAvtf22-76" value="" style="fontColor=#0066CC;verticalAlign=top;verticalLabelPosition=bottom;labelPosition=center;align=center;html=1;outlineConnect=0;fillColor=#CCCCCC;strokeColor=#6881B3;gradientColor=none;gradientDirection=north;strokeWidth=2;shape=mxgraph.networks.server;rounded=1;" vertex="1" parent="VufkpgmZtVHJ2tAvtf22-80">
          <mxGeometry y="3" width="90" height="100" as="geometry" />
        </mxCell>
        <mxCell id="VufkpgmZtVHJ2tAvtf22-112" value="&lt;font style=&quot;font-size: 17px;&quot;&gt;数据中心服务器集群&lt;/font&gt;" style="text;html=1;align=center;verticalAlign=middle;whiteSpace=wrap;rounded=0;" vertex="1" parent="VufkpgmZtVHJ2tAvtf22-80">
          <mxGeometry x="134" y="103" width="276" height="30" as="geometry" />
        </mxCell>
        <mxCell id="VufkpgmZtVHJ2tAvtf22-81" value="" style="group;dashed=1;" vertex="1" connectable="0" parent="1">
          <mxGeometry x="381" y="883" width="362" height="154" as="geometry" />
        </mxCell>
        <mxCell id="VufkpgmZtVHJ2tAvtf22-91" value="" style="rounded=1;whiteSpace=wrap;html=1;dashed=1;" vertex="1" parent="VufkpgmZtVHJ2tAvtf22-81">
          <mxGeometry x="-28" y="-21" width="390" height="175" as="geometry" />
        </mxCell>
        <mxCell id="VufkpgmZtVHJ2tAvtf22-82" style="edgeStyle=orthogonalEdgeStyle;rounded=1;orthogonalLoop=1;jettySize=auto;html=1;exitX=0;exitY=0.5;exitDx=0;exitDy=0;exitPerimeter=0;" edge="1" parent="VufkpgmZtVHJ2tAvtf22-81" source="VufkpgmZtVHJ2tAvtf22-70">
          <mxGeometry relative="1" as="geometry">
            <mxPoint x="94" y="60" as="targetPoint" />
          </mxGeometry>
        </mxCell>
        <mxCell id="VufkpgmZtVHJ2tAvtf22-70" value="" style="fontColor=#0066CC;verticalAlign=top;verticalLabelPosition=bottom;labelPosition=center;align=center;html=1;outlineConnect=0;fillColor=#CCCCCC;strokeColor=#6881B3;gradientColor=none;gradientDirection=north;strokeWidth=2;shape=mxgraph.networks.storage;rounded=1;" vertex="1" parent="VufkpgmZtVHJ2tAvtf22-81">
          <mxGeometry x="233" y="10" width="100" height="100" as="geometry" />
        </mxCell>
        <mxCell id="VufkpgmZtVHJ2tAvtf22-77" value="" style="fontColor=#0066CC;verticalAlign=top;verticalLabelPosition=bottom;labelPosition=center;align=center;html=1;outlineConnect=0;fillColor=#CCCCCC;strokeColor=#6881B3;gradientColor=none;gradientDirection=north;strokeWidth=2;shape=mxgraph.networks.server_storage;rounded=1;" vertex="1" parent="VufkpgmZtVHJ2tAvtf22-81">
          <mxGeometry width="105" height="105" as="geometry" />
        </mxCell>
        <mxCell id="VufkpgmZtVHJ2tAvtf22-113" value="&lt;font style=&quot;font-size: 17px;&quot;&gt;存储服务器&lt;/font&gt;" style="text;html=1;align=center;verticalAlign=middle;whiteSpace=wrap;rounded=0;" vertex="1" parent="VufkpgmZtVHJ2tAvtf22-81">
          <mxGeometry x="8" y="113" width="104" height="30" as="geometry" />
        </mxCell>
        <mxCell id="VufkpgmZtVHJ2tAvtf22-114" value="&lt;font style=&quot;font-size: 17px;&quot;&gt;存储&lt;/font&gt;" style="text;html=1;align=center;verticalAlign=middle;whiteSpace=wrap;rounded=0;" vertex="1" parent="VufkpgmZtVHJ2tAvtf22-81">
          <mxGeometry x="255" y="117" width="60" height="30" as="geometry" />
        </mxCell>
        <mxCell id="VufkpgmZtVHJ2tAvtf22-88" style="edgeStyle=orthogonalEdgeStyle;rounded=1;orthogonalLoop=1;jettySize=auto;html=1;exitX=1;exitY=0.5;exitDx=0;exitDy=0;entryX=0.06;entryY=0.5;entryDx=0;entryDy=0;entryPerimeter=0;" edge="1" parent="1" source="VufkpgmZtVHJ2tAvtf22-87" target="VufkpgmZtVHJ2tAvtf22-72">
          <mxGeometry relative="1" as="geometry" />
        </mxCell>
        <mxCell id="VufkpgmZtVHJ2tAvtf22-97" style="edgeStyle=orthogonalEdgeStyle;rounded=1;orthogonalLoop=1;jettySize=auto;html=1;exitX=0.5;exitY=1;exitDx=0;exitDy=0;" edge="1" parent="1" source="VufkpgmZtVHJ2tAvtf22-84" target="VufkpgmZtVHJ2tAvtf22-91">
          <mxGeometry relative="1" as="geometry" />
        </mxCell>
        <mxCell id="VufkpgmZtVHJ2tAvtf22-103" style="edgeStyle=orthogonalEdgeStyle;rounded=1;orthogonalLoop=1;jettySize=auto;html=1;exitX=0.5;exitY=1;exitDx=0;exitDy=0;entryX=0;entryY=0.5;entryDx=0;entryDy=0;" edge="1" parent="1" source="VufkpgmZtVHJ2tAvtf22-101" target="VufkpgmZtVHJ2tAvtf22-91">
          <mxGeometry relative="1" as="geometry" />
        </mxCell>
        <mxCell id="VufkpgmZtVHJ2tAvtf22-101" value="" style="rounded=1;whiteSpace=wrap;html=1;container=0;dashed=1;" vertex="1" parent="1">
          <mxGeometry x="-300" y="722" width="339" height="126" as="geometry" />
        </mxCell>
        <mxCell id="VufkpgmZtVHJ2tAvtf22-94" value="" style="fontColor=#0066CC;verticalAlign=top;verticalLabelPosition=bottom;labelPosition=center;align=center;html=1;outlineConnect=0;fillColor=#CCCCCC;strokeColor=#6881B3;gradientColor=none;gradientDirection=north;strokeWidth=2;shape=mxgraph.networks.monitor;rounded=1;container=0;" vertex="1" parent="1">
          <mxGeometry x="-100" y="759.5943396226415" width="80" height="71.74528301886794" as="geometry" />
        </mxCell>
        <mxCell id="VufkpgmZtVHJ2tAvtf22-95" value="" style="fontColor=#0066CC;verticalAlign=top;verticalLabelPosition=bottom;labelPosition=center;align=center;html=1;outlineConnect=0;fillColor=#CCCCCC;strokeColor=#6881B3;gradientColor=none;gradientDirection=north;strokeWidth=2;shape=mxgraph.networks.pc;rounded=1;container=0;" vertex="1" parent="1">
          <mxGeometry x="-274" y="748.5566037735849" width="100" height="77.26415094339623" as="geometry" />
        </mxCell>
        <mxCell id="VufkpgmZtVHJ2tAvtf22-104" style="edgeStyle=orthogonalEdgeStyle;rounded=1;orthogonalLoop=1;jettySize=auto;html=1;exitX=0.5;exitY=0;exitDx=0;exitDy=0;entryX=0.008;entryY=0.321;entryDx=0;entryDy=0;entryPerimeter=0;" edge="1" parent="1" source="VufkpgmZtVHJ2tAvtf22-101" target="VufkpgmZtVHJ2tAvtf22-84">
          <mxGeometry relative="1" as="geometry" />
        </mxCell>
        <mxCell id="VufkpgmZtVHJ2tAvtf22-92" value="" style="group" vertex="1" connectable="0" parent="1">
          <mxGeometry x="-264" y="326" width="344" height="160" as="geometry" />
        </mxCell>
        <mxCell id="VufkpgmZtVHJ2tAvtf22-87" value="" style="rounded=1;whiteSpace=wrap;html=1;dashed=1;" vertex="1" parent="VufkpgmZtVHJ2tAvtf22-92">
          <mxGeometry x="-15" y="-29" width="359" height="189" as="geometry" />
        </mxCell>
        <mxCell id="VufkpgmZtVHJ2tAvtf22-71" value="" style="fontColor=#0066CC;verticalAlign=top;verticalLabelPosition=bottom;labelPosition=center;align=center;html=1;outlineConnect=0;fillColor=#CCCCCC;strokeColor=#6881B3;gradientColor=none;gradientDirection=north;strokeWidth=2;shape=mxgraph.networks.users;rounded=1;" vertex="1" parent="VufkpgmZtVHJ2tAvtf22-92">
          <mxGeometry x="41.84958217270195" y="17.632352941176467" width="78.46796657381616" height="80.1470588235294" as="geometry" />
        </mxCell>
        <mxCell id="VufkpgmZtVHJ2tAvtf22-73" value="" style="fontColor=#0066CC;verticalAlign=top;verticalLabelPosition=bottom;labelPosition=center;align=center;html=1;outlineConnect=0;fillColor=#CCCCCC;strokeColor=#6881B3;gradientColor=none;gradientDirection=north;strokeWidth=2;shape=mxgraph.networks.laptop;rounded=1;" vertex="1" parent="VufkpgmZtVHJ2tAvtf22-92">
          <mxGeometry x="177.8607242339833" y="28.852941176470587" width="87.1866295264624" height="44.08088235294117" as="geometry" />
        </mxCell>
        <mxCell id="VufkpgmZtVHJ2tAvtf22-108" value="&lt;font style=&quot;font-size: 17px;&quot;&gt;客户端&lt;/font&gt;" style="text;html=1;align=center;verticalAlign=middle;whiteSpace=wrap;rounded=0;" vertex="1" parent="VufkpgmZtVHJ2tAvtf22-92">
          <mxGeometry x="123" y="109" width="60" height="30" as="geometry" />
        </mxCell>
        <mxCell id="VufkpgmZtVHJ2tAvtf22-109" value="&lt;font style=&quot;font-size: 17px;&quot;&gt;互联网&lt;/font&gt;" style="text;html=1;align=center;verticalAlign=middle;whiteSpace=wrap;rounded=0;" vertex="1" parent="1">
          <mxGeometry x="642" y="371" width="60" height="30" as="geometry" />
        </mxCell>
        <mxCell id="VufkpgmZtVHJ2tAvtf22-110" value="&lt;font style=&quot;font-size: 17px;&quot;&gt;企业防火墙&lt;/font&gt;" style="text;html=1;align=center;verticalAlign=middle;whiteSpace=wrap;rounded=0;" vertex="1" parent="1">
          <mxGeometry x="646" y="507" width="130" height="43" as="geometry" />
        </mxCell>
        <mxCell id="VufkpgmZtVHJ2tAvtf22-111" value="&lt;font style=&quot;font-size: 17px;&quot;&gt;企业内网-&lt;/font&gt;&lt;span style=&quot;font-size: 17px; background-color: initial;&quot;&gt;信息化等业务部门&lt;/span&gt;" style="text;html=1;align=center;verticalAlign=middle;whiteSpace=wrap;rounded=0;" vertex="1" parent="1">
          <mxGeometry x="-244" y="721" width="234" height="30" as="geometry" />
        </mxCell>
        <mxCell id="VufkpgmZtVHJ2tAvtf22-116" value="&lt;font style=&quot;font-size: 36px;&quot;&gt;企业内网&lt;/font&gt;" style="text;html=1;align=center;verticalAlign=middle;whiteSpace=wrap;rounded=0;" vertex="1" parent="1">
          <mxGeometry x="-232" y="590" width="196" height="57" as="geometry" />
        </mxCell>
      </root>
    </mxGraphModel>
  </diagram>
  <diagram id="x33e1Dx1JIBRg685Rzji" name="第 2 页">
    <mxGraphModel dx="1674" dy="790" grid="0" gridSize="10" guides="1" tooltips="1" connect="1" arrows="1" fold="1" page="1" pageScale="1" pageWidth="583" pageHeight="413" math="0" shadow="0">
      <root>
        <mxCell id="0" />
        <mxCell id="1" parent="0" />
        <mxCell id="E6gcX0sjezPecVc_Mte1-1" style="edgeStyle=orthogonalEdgeStyle;rounded=1;orthogonalLoop=1;jettySize=auto;html=1;exitX=0.5;exitY=0;exitDx=0;exitDy=0;entryX=0.5;entryY=1;entryDx=0;entryDy=0;" edge="1" parent="1" source="E6gcX0sjezPecVc_Mte1-2" target="E6gcX0sjezPecVc_Mte1-3">
          <mxGeometry relative="1" as="geometry" />
        </mxCell>
        <mxCell id="E6gcX0sjezPecVc_Mte1-2" value="" style="rounded=1;whiteSpace=wrap;html=1;" vertex="1" parent="1">
          <mxGeometry x="178" y="407" width="661" height="120" as="geometry" />
        </mxCell>
        <mxCell id="E6gcX0sjezPecVc_Mte1-3" value="" style="rounded=1;whiteSpace=wrap;html=1;" vertex="1" parent="1">
          <mxGeometry x="178" y="230" width="661" height="120" as="geometry" />
        </mxCell>
        <mxCell id="E6gcX0sjezPecVc_Mte1-4" value="" style="rounded=1;whiteSpace=wrap;html=1;" vertex="1" parent="1">
          <mxGeometry x="178" y="560" width="271" height="120" as="geometry" />
        </mxCell>
        <mxCell id="E6gcX0sjezPecVc_Mte1-5" value="" style="rounded=1;whiteSpace=wrap;html=1;" vertex="1" parent="1">
          <mxGeometry x="538" y="560" width="301" height="120" as="geometry" />
        </mxCell>
        <mxCell id="E6gcX0sjezPecVc_Mte1-6" value="&lt;font style=&quot;font-size: 18px;&quot;&gt;业务应用层&lt;/font&gt;" style="text;html=1;align=center;verticalAlign=middle;whiteSpace=wrap;rounded=1;" vertex="1" parent="1">
          <mxGeometry x="90" y="280" width="71" height="30" as="geometry" />
        </mxCell>
        <mxCell id="E6gcX0sjezPecVc_Mte1-7" value="&lt;font style=&quot;font-size: 18px;&quot;&gt;存储层&lt;/font&gt;" style="text;html=1;align=center;verticalAlign=middle;whiteSpace=wrap;rounded=1;" vertex="1" parent="1">
          <mxGeometry x="78" y="620" width="72" height="30" as="geometry" />
        </mxCell>
        <mxCell id="E6gcX0sjezPecVc_Mte1-8" value="&lt;font style=&quot;font-size: 18px;&quot;&gt;网络层&lt;/font&gt;" style="text;html=1;align=center;verticalAlign=middle;whiteSpace=wrap;rounded=1;" vertex="1" parent="1">
          <mxGeometry x="880" y="610" width="72" height="30" as="geometry" />
        </mxCell>
        <mxCell id="E6gcX0sjezPecVc_Mte1-9" value="&lt;font style=&quot;font-size: 18px;&quot;&gt;私有云基础设施层&lt;/font&gt;" style="text;html=1;align=center;verticalAlign=middle;whiteSpace=wrap;rounded=1;" vertex="1" parent="1">
          <mxGeometry x="60" y="450" width="101" height="30" as="geometry" />
        </mxCell>
        <mxCell id="E6gcX0sjezPecVc_Mte1-10" value="" style="rounded=1;whiteSpace=wrap;html=1;" vertex="1" parent="1">
          <mxGeometry x="889" y="150" width="175" height="263" as="geometry" />
        </mxCell>
        <mxCell id="E6gcX0sjezPecVc_Mte1-11" value="&lt;font style=&quot;font-size: 18px;&quot;&gt;流水线工具&lt;/font&gt;" style="text;html=1;align=center;verticalAlign=middle;whiteSpace=wrap;rounded=0;" vertex="1" parent="1">
          <mxGeometry x="920" y="443" width="126" height="30" as="geometry" />
        </mxCell>
        <mxCell id="E6gcX0sjezPecVc_Mte1-12" value="" style="sketch=0;aspect=fixed;pointerEvents=1;shadow=0;dashed=0;html=1;strokeColor=none;labelPosition=center;verticalLabelPosition=bottom;verticalAlign=top;align=center;fillColor=#00188D;shape=mxgraph.mscae.enterprise.application;rounded=1;" vertex="1" parent="1">
          <mxGeometry x="210" y="260" width="73.52" height="50" as="geometry" />
        </mxCell>
        <mxCell id="E6gcX0sjezPecVc_Mte1-13" value="" style="sketch=0;aspect=fixed;pointerEvents=1;shadow=0;dashed=0;html=1;strokeColor=none;labelPosition=center;verticalLabelPosition=bottom;verticalAlign=top;align=center;fillColor=#00188D;shape=mxgraph.mscae.enterprise.application;rounded=1;" vertex="1" parent="1">
          <mxGeometry x="340" y="260" width="73.52" height="50" as="geometry" />
        </mxCell>
        <mxCell id="E6gcX0sjezPecVc_Mte1-14" value="" style="sketch=0;aspect=fixed;pointerEvents=1;shadow=0;dashed=0;html=1;strokeColor=none;labelPosition=center;verticalLabelPosition=bottom;verticalAlign=top;align=center;fillColor=#00188D;shape=mxgraph.mscae.enterprise.application;rounded=1;" vertex="1" parent="1">
          <mxGeometry x="470" y="260" width="73.52" height="50" as="geometry" />
        </mxCell>
        <mxCell id="E6gcX0sjezPecVc_Mte1-15" value="" style="sketch=0;aspect=fixed;pointerEvents=1;shadow=0;dashed=0;html=1;strokeColor=none;labelPosition=center;verticalLabelPosition=bottom;verticalAlign=top;align=center;fillColor=#00188D;shape=mxgraph.mscae.enterprise.application;rounded=1;" vertex="1" parent="1">
          <mxGeometry x="600" y="260" width="73.52" height="50" as="geometry" />
        </mxCell>
        <mxCell id="E6gcX0sjezPecVc_Mte1-16" value="" style="sketch=0;aspect=fixed;pointerEvents=1;shadow=0;dashed=0;html=1;strokeColor=none;labelPosition=center;verticalLabelPosition=bottom;verticalAlign=top;align=center;fillColor=#00188D;shape=mxgraph.mscae.enterprise.application;rounded=1;" vertex="1" parent="1">
          <mxGeometry x="730" y="260" width="73.52" height="50" as="geometry" />
        </mxCell>
        <mxCell id="E6gcX0sjezPecVc_Mte1-17" value="" style="shape=image;imageAspect=0;aspect=fixed;verticalLabelPosition=bottom;verticalAlign=top;rounded=1;image=data:image/png,iVBORw0KGgoAAAANSUhEUgAAAUgAAABkCAYAAADkDanKAAAACXBIWXMAAAsTAAALEwEAmpwYAAA4KmlUWHRYTUw6Y29tLmFkb2JlLnhtcAAAAAAAPD94cGFja2V0IGJlZ2luPSLvu78iIGlkPSJXNU0wTXBDZWhpSHpyZVN6TlRjemtjOWQiPz4KPHg6eG1wbWV0YSB4bWxuczp4PSJhZG9iZTpuczptZXRhLyIgeDp4bXB0az0iQWRvYmUgWE1QIENvcmUgNS42LWMwNjcgNzkuMTU3NzQ3LCAyMDE1LzAzLzMwLTIzOjQwOjQyICAgICAgICAiPgogICA8cmRmOlJERiB4bWxuczpyZGY9Imh0dHA6Ly93d3cudzMub3JnLzE5OTkvMDIvMjItcmRmLXN5bnRheC1ucyMiPgogICAgICA8cmRmOkRlc2NyaXB0aW9uIHJkZjphYm91dD0iIgogICAgICAgICAgICB4bWxuczp4bXA9Imh0dHA6Ly9ucy5hZG9iZS5jb20veGFwLzEuMC8iCiAgICAgICAgICAgIHhtbG5zOmRjPSJodHRwOi8vcHVybC5vcmcvZGMvZWxlbWVudHMvMS4xLyIKICAgICAgICAgICAgeG1sbnM6cGhvdG9zaG9wPSJodHRwOi8vbnMuYWRvYmUuY29tL3Bob3Rvc2hvcC8xLjAvIgogICAgICAgICAgICB4bWxuczp4bXBNTT0iaHR0cDovL25zLmFkb2JlLmNvbS94YXAvMS4wL21tLyIKICAgICAgICAgICAgeG1sbnM6c3RFdnQ9Imh0dHA6Ly9ucy5hZG9iZS5jb20veGFwLzEuMC9zVHlwZS9SZXNvdXJjZUV2ZW50IyIKICAgICAgICAgICAgeG1sbnM6dGlmZj0iaHR0cDovL25zLmFkb2JlLmNvbS90aWZmLzEuMC8iCiAgICAgICAgICAgIHhtbG5zOmV4aWY9Imh0dHA6Ly9ucy5hZG9iZS5jb20vZXhpZi8xLjAvIj4KICAgICAgICAgPHhtcDpDcmVhdG9yVG9vbD5BZG9iZSBQaG90b3Nob3AgQ0MgMjAxNSAoTWFjaW50b3NoKTwveG1wOkNyZWF0b3JUb29sPgogICAgICAgICA8eG1wOkNyZWF0ZURhdGU+MjAxNS0wNy0yOFQxNjoyOTowNy0wNzowMDwveG1wOkNyZWF0ZURhdGU+CiAgICAgICAgIDx4bXA6TW9kaWZ5RGF0ZT4yMDE1LTA3LTI4VDE2OjM3OjM4LTA3OjAwPC94bXA6TW9kaWZ5RGF0ZT4KICAgICAgICAgPHhtcDpNZXRhZGF0YURhdGU+MjAxNS0wNy0yOFQxNjozNzozOC0wNzowMDwveG1wOk1ldGFkYXRhRGF0ZT4KICAgICAgICAgPGRjOmZvcm1hdD5pbWFnZS9wbmc8L2RjOmZvcm1hdD4KICAgICAgICAgPHBob3Rvc2hvcDpDb2xvck1vZGU+MzwvcGhvdG9zaG9wOkNvbG9yTW9kZT4KICAgICAgICAgPHhtcE1NOkluc3RhbmNlSUQ+eG1wLmlpZDpjMTg3MjFkZi1hMTliLTQ3ZGQtOTc4ZS04MGZjNGQwNWM0Mzc8L3htcE1NOkluc3RhbmNlSUQ+CiAgICAgICAgIDx4bXBNTTpEb2N1bWVudElEPnhtcC5kaWQ6YzE4NzIxZGYtYTE5Yi00N2RkLTk3OGUtODBmYzRkMDVjNDM3PC94bXBNTTpEb2N1bWVudElEPgogICAgICAgICA8eG1wTU06T3JpZ2luYWxEb2N1bWVudElEPnhtcC5kaWQ6YzE4NzIxZGYtYTE5Yi00N2RkLTk3OGUtODBmYzRkMDVjNDM3PC94bXBNTTpPcmlnaW5hbERvY3VtZW50SUQ+CiAgICAgICAgIDx4bXBNTTpIaXN0b3J5PgogICAgICAgICAgICA8cmRmOlNlcT4KICAgICAgICAgICAgICAgPHJkZjpsaSByZGY6cGFyc2VUeXBlPSJSZXNvdXJjZSI+CiAgICAgICAgICAgICAgICAgIDxzdEV2dDphY3Rpb24+Y3JlYXRlZDwvc3RFdnQ6YWN0aW9uPgogICAgICAgICAgICAgICAgICA8c3RFdnQ6aW5zdGFuY2VJRD54bXAuaWlkOmMxODcyMWRmLWExOWItNDdkZC05NzhlLTgwZmM0ZDA1YzQzNzwvc3RFdnQ6aW5zdGFuY2VJRD4KICAgICAgICAgICAgICAgICAgPHN0RXZ0OndoZW4+MjAxNS0wNy0yOFQxNjoyOTowNy0wNzowMDwvc3RFdnQ6d2hlbj4KICAgICAgICAgICAgICAgICAgPHN0RXZ0OnNvZnR3YXJlQWdlbnQ+QWRvYmUgUGhvdG9zaG9wIENDIDIwMTUgKE1hY2ludG9zaCk8L3N0RXZ0OnNvZnR3YXJlQWdlbnQ+CiAgICAgICAgICAgICAgIDwvcmRmOmxpPgogICAgICAgICAgICA8L3JkZjpTZXE+CiAgICAgICAgIDwveG1wTU06SGlzdG9yeT4KICAgICAgICAgPHRpZmY6T3JpZW50YXRpb24+MTwvdGlmZjpPcmllbnRhdGlvbj4KICAgICAgICAgPHRpZmY6WFJlc29sdXRpb24+NzIwMDAwLzEwMDAwPC90aWZmOlhSZXNvbHV0aW9uPgogICAgICAgICA8dGlmZjpZUmVzb2x1dGlvbj43MjAwMDAvMTAwMDA8L3RpZmY6WVJlc29sdXRpb24+CiAgICAgICAgIDx0aWZmOlJlc29sdXRpb25Vbml0PjI8L3RpZmY6UmVzb2x1dGlvblVuaXQ+CiAgICAgICAgIDxleGlmOkNvbG9yU3BhY2U+NjU1MzU8L2V4aWY6Q29sb3JTcGFjZT4KICAgICAgICAgPGV4aWY6UGl4ZWxYRGltZW5zaW9uPjMyODwvZXhpZjpQaXhlbFhEaW1lbnNpb24+CiAgICAgICAgIDxleGlmOlBpeGVsWURpbWVuc2lvbj4xMDA8L2V4aWY6UGl4ZWxZRGltZW5zaW9uPgogICAgICA8L3JkZjpEZXNjcmlwdGlvbj4KICAgPC9yZGY6UkRGPgo8L3g6eG1wbWV0YT4KICAgICAgICAgICAgICAgICAgICAgICAgICAgICAgICAgICAgICAgICAgICAgICAgICAgICAgICAgICAgICAgICAgICAgICAgICAgICAgICAgICAgICAgICAgICAgICAgICAgIAogICAgICAgICAgICAgICAgICAgICAgICAgICAgICAgICAgICAgICAgICAgICAgICAgICAgICAgICAgICAgICAgICAgICAgICAgICAgICAgICAgICAgICAgICAgICAgICAgICAgCiAgICAgICAgICAgICAgICAgICAgICAgICAgICAgICAgICAgICAgICAgICAgICAgICAgICAgICAgICAgICAgICAgICAgICAgICAgICAgICAgICAgICAgICAgICAgICAgICAgICAKICAgICAgICAgICAgICAgICAgICAgICAgICAgICAgICAgICAgICAgICAgICAgICAgICAgICAgICAgICAgICAgICAgICAgICAgICAgICAgICAgICAgICAgICAgICAgICAgICAgIAogICAgICAgICAgICAgICAgICAgICAgICAgICAgICAgICAgICAgICAgICAgICAgICAgICAgICAgICAgICAgICAgICAgICAgICAgICAgICAgICAgICAgICAgICAgICAgICAgICAgCiAgICAgICAgICAgICAgICAgICAgICAgICAgICAgICAgICAgICAgICAgICAgICAgICAgICAgICAgICAgICAgICAgICAgICAgICAgICAgICAgICAgICAgICAgICAgICAgICAgICAKICAgICAgICAgICAgICAgICAgICAgICAgICAgICAgICAgICAgICAgICAgICAgICAgICAgICAgICAgICAgICAgICAgICAgICAgICAgICAgICAgICAgICAgICAgICAgICAgICAgIAogICAgICAgICAgICAgICAgICAgICAgICAgICAgICAgICAgICAgICAgICAgICAgICAgICAgICAgICAgICAgICAgICAgICAgICAgICAgICAgICAgICAgICAgICAgICAgICAgICAgCiAgICAgICAgICAgICAgICAgICAgICAgICAgICAgICAgICAgICAgICAgICAgICAgICAgICAgICAgICAgICAgICAgICAgICAgICAgICAgICAgICAgICAgICAgICAgICAgICAgICAKICAgICAgICAgICAgICAgICAgICAgICAgICAgICAgICAgICAgICAgICAgICAgICAgICAgICAgICAgICAgICAgICAgICAgICAgICAgICAgICAgICAgICAgICAgICAgICAgICAgIAogICAgICAgICAgICAgICAgICAgICAgICAgICAgICAgICAgICAgICAgICAgICAgICAgICAgICAgICAgICAgICAgICAgICAgICAgICAgICAgICAgICAgICAgICAgICAgICAgICAgCiAgICAgICAgICAgICAgICAgICAgICAgICAgICAgICAgICAgICAgICAgICAgICAgICAgICAgICAgICAgICAgICAgICAgICAgICAgICAgICAgICAgICAgICAgICAgICAgICAgICAKICAgICAgICAgICAgICAgICAgICAgICAgICAgICAgICAgICAgICAgICAgICAgICAgICAgICAgICAgICAgICAgICAgICAgICAgICAgICAgICAgICAgICAgICAgICAgICAgICAgIAogICAgICAgICAgICAgICAgICAgICAgICAgICAgICAgICAgICAgICAgICAgICAgICAgICAgICAgICAgICAgICAgICAgICAgICAgICAgICAgICAgICAgICAgICAgICAgICAgICAgCiAgICAgICAgICAgICAgICAgICAgICAgICAgICAgICAgICAgICAgICAgICAgICAgICAgICAgICAgICAgICAgICAgICAgICAgICAgICAgICAgICAgICAgICAgICAgICAgICAgICAKICAgICAgICAgICAgICAgICAgICAgICAgICAgICAgICAgICAgICAgICAgICAgICAgICAgICAgICAgICAgICAgICAgICAgICAgICAgICAgICAgICAgICAgICAgICAgICAgICAgIAogICAgICAgICAgICAgICAgICAgICAgICAgICAgICAgICAgICAgICAgICAgICAgICAgICAgICAgICAgICAgICAgICAgICAgICAgICAgICAgICAgICAgICAgICAgICAgICAgICAgCiAgICAgICAgICAgICAgICAgICAgICAgICAgICAgICAgICAgICAgICAgICAgICAgICAgICAgICAgICAgICAgICAgICAgICAgICAgICAgICAgICAgICAgICAgICAgICAgICAgICAKICAgICAgICAgICAgICAgICAgICAgICAgICAgICAgICAgICAgICAgICAgICAgICAgICAgICAgICAgICAgICAgICAgICAgICAgICAgICAgICAgICAgICAgICAgICAgICAgICAgIAogICAgICAgICAgICAgICAgICAgICAgICAgICAgICAgICAgICAgICAgICAgICAgICAgICAgICAgICAgICAgICAgICAgICAgICAgICAgICAgICAgICAgICAgICAgICAgICAgICAgCiAgICAgICAgICAgICAgICAgICAgICAgICAgICAgICAgICAgICAgICAgICAgICAgICAgICAgICAgICAgICAgICAgICAgICAgICAgICAgICAgICAgICAgICAgICAgICAgICAgICAKICAgICAgICAgICAgICAgICAgICAgICAgICAgICAgICAgICAgICAgICAgICAgICAgICAgICAgICAgICAgICAgICAgICAgICAgICAgICAgICAgICAgICAgICAgICAgICAgICAgIAogICAgICAgICAgICAgICAgICAgICAgICAgICAgICAgICAgICAgICAgICAgICAgICAgICAgICAgICAgICAgICAgICAgICAgICAgICAgICAgICAgICAgICAgICAgICAgICAgICAgCiAgICAgICAgICAgICAgICAgICAgICAgICAgICAgICAgICAgICAgICAgICAgICAgICAgICAgICAgICAgICAgICAgICAgICAgICAgICAgICAgICAgICAgICAgICAgICAgICAgICAKICAgICAgICAgICAgICAgICAgICAgICAgICAgICAgICAgICAgICAgICAgICAgICAgICAgICAgICAgICAgICAgICAgICAgICAgICAgICAgICAgICAgICAgICAgICAgICAgICAgIAogICAgICAgICAgICAgICAgICAgICAgICAgICAgICAgICAgICAgICAgICAgICAgICAgICAgICAgICAgICAgICAgICAgICAgICAgICAgICAgICAgICAgICAgICAgICAgICAgICAgCiAgICAgICAgICAgICAgICAgICAgICAgICAgICAgICAgICAgICAgICAgICAgICAgICAgICAgICAgICAgICAgICAgICAgICAgICAgICAgICAgICAgICAgICAgICAgICAgICAgICAKICAgICAgICAgICAgICAgICAgICAgICAgICAgICAgICAgICAgICAgICAgICAgICAgICAgICAgICAgICAgICAgICAgICAgICAgICAgICAgICAgICAgICAgICAgICAgICAgICAgIAogICAgICAgICAgICAgICAgICAgICAgICAgICAgICAgICAgICAgICAgICAgICAgICAgICAgICAgICAgICAgICAgICAgICAgICAgICAgICAgICAgICAgICAgICAgICAgICAgICAgCiAgICAgICAgICAgICAgICAgICAgICAgICAgICAgICAgICAgICAgICAgICAgICAgICAgICAgICAgICAgICAgICAgICAgICAgICAgICAgICAgICAgICAgICAgICAgICAgICAgICAKICAgICAgICAgICAgICAgICAgICAgICAgICAgICAgICAgICAgICAgICAgICAgICAgICAgICAgICAgICAgICAgICAgICAgICAgICAgICAgICAgICAgICAgICAgICAgICAgICAgIAogICAgICAgICAgICAgICAgICAgICAgICAgICAgICAgICAgICAgICAgICAgICAgICAgICAgICAgICAgICAgICAgICAgICAgICAgICAgICAgICAgICAgICAgICAgICAgICAgICAgCiAgICAgICAgICAgICAgICAgICAgICAgICAgICAgICAgICAgICAgICAgICAgICAgICAgICAgICAgICAgICAgICAgICAgICAgICAgICAgICAgICAgICAgICAgICAgICAgICAgICAKICAgICAgICAgICAgICAgICAgICAgICAgICAgICAgICAgICAgICAgICAgICAgICAgICAgICAgICAgICAgICAgICAgICAgICAgICAgICAgICAgICAgICAgICAgICAgICAgICAgIAogICAgICAgICAgICAgICAgICAgICAgICAgICAgICAgICAgICAgICAgICAgICAgICAgICAgICAgICAgICAgICAgICAgICAgICAgICAgICAgICAgICAgICAgICAgICAgICAgICAgCiAgICAgICAgICAgICAgICAgICAgICAgICAgICAgICAgICAgICAgICAgICAgICAgICAgICAgICAgICAgICAgICAgICAgICAgICAgICAgICAgICAgICAgICAgICAgICAgICAgICAKICAgICAgICAgICAgICAgICAgICAgICAgICAgICAgICAgICAgICAgICAgICAgICAgICAgICAgICAgICAgICAgICAgICAgICAgICAgICAgICAgICAgICAgICAgICAgICAgICAgIAogICAgICAgICAgICAgICAgICAgICAgICAgICAgICAgICAgICAgICAgICAgICAgICAgICAgICAgICAgICAgICAgICAgICAgICAgICAgICAgICAgICAgICAgICAgICAgICAgICAgCiAgICAgICAgICAgICAgICAgICAgICAgICAgICAgICAgICAgICAgICAgICAgICAgICAgICAgICAgICAgICAgICAgICAgICAgICAgICAgICAgICAgICAgICAgICAgICAgICAgICAKICAgICAgICAgICAgICAgICAgICAgICAgICAgICAgICAgICAgICAgICAgICAgICAgICAgICAgICAgICAgICAgICAgICAgICAgICAgICAgICAgICAgICAgICAgICAgICAgICAgIAogICAgICAgICAgICAgICAgICAgICAgICAgICAgICAgICAgICAgICAgICAgICAgICAgICAgICAgICAgICAgICAgICAgICAgICAgICAgICAgICAgICAgICAgICAgICAgICAgICAgCiAgICAgICAgICAgICAgICAgICAgICAgICAgICAgICAgICAgICAgICAgICAgICAgICAgICAgICAgICAgICAgICAgICAgICAgICAgICAgICAgICAgICAgICAgICAgICAgICAgICAKICAgICAgICAgICAgICAgICAgICAgICAgICAgICAgICAgICAgICAgICAgICAgICAgICAgICAgICAgICAgICAgICAgICAgICAgICAgICAgICAgICAgICAgICAgICAgICAgICAgIAogICAgICAgICAgICAgICAgICAgICAgICAgICAgICAgICAgICAgICAgICAgICAgICAgICAgICAgICAgICAgICAgICAgICAgICAgICAgICAgICAgICAgICAgICAgICAgICAgICAgCiAgICAgICAgICAgICAgICAgICAgICAgICAgICAgICAgICAgICAgICAgICAgICAgICAgICAgICAgICAgICAgICAgICAgICAgICAgICAgICAgICAgICAgICAgICAgICAgICAgICAKICAgICAgICAgICAgICAgICAgICAgICAgICAgICAgICAgICAgICAgICAgICAgICAgICAgICAgICAgICAgICAgICAgICAgICAgICAgICAgICAgICAgICAgICAgICAgICAgICAgIAogICAgICAgICAgICAgICAgICAgICAgICAgICAgICAgICAgICAgICAgICAgICAgICAgICAgICAgICAgICAgICAgICAgICAgICAgICAgICAgICAgICAgICAgICAgICAgICAgICAgCiAgICAgICAgICAgICAgICAgICAgICAgICAgICAgICAgICAgICAgICAgICAgICAgICAgICAgICAgICAgICAgICAgICAgICAgICAgICAgICAgICAgICAgICAgICAgICAgICAgICAKICAgICAgICAgICAgICAgICAgICAgICAgICAgICAgICAgICAgICAgICAgICAgICAgICAgICAgICAgICAgICAgICAgICAgICAgICAgICAgICAgICAgICAgICAgICAgICAgICAgIAogICAgICAgICAgICAgICAgICAgICAgICAgICAgICAgICAgICAgICAgICAgICAgICAgICAgICAgICAgICAgICAgICAgICAgICAgICAgICAgICAgICAgICAgICAgICAgICAgICAgCiAgICAgICAgICAgICAgICAgICAgICAgICAgICAgICAgICAgICAgICAgICAgICAgICAgICAgICAgICAgICAgICAgICAgICAgICAgICAgICAgICAgICAgICAgICAgICAgICAgICAKICAgICAgICAgICAgICAgICAgICAgICAgICAgICAgICAgICAgICAgICAgICAgICAgICAgICAgICAgICAgICAgICAgICAgICAgICAgICAgICAgICAgICAgICAgICAgICAgICAgIAogICAgICAgICAgICAgICAgICAgICAgICAgICAgICAgICAgICAgICAgICAgICAgICAgICAgICAgICAgICAgICAgICAgICAgICAgICAgICAgICAgICAgICAgICAgICAgICAgICAgCiAgICAgICAgICAgICAgICAgICAgICAgICAgICAgICAgICAgICAgICAgICAgICAgICAgICAgICAgICAgICAgICAgICAgICAgICAgICAgICAgICAgICAgICAgICAgICAgICAgICAKICAgICAgICAgICAgICAgICAgICAgICAgICAgICAgICAgICAgICAgICAgICAgICAgICAgICAgICAgICAgICAgICAgICAgICAgICAgICAgICAgICAgICAgICAgICAgICAgICAgIAogICAgICAgICAgICAgICAgICAgICAgICAgICAgICAgICAgICAgICAgICAgICAgICAgICAgICAgICAgICAgICAgICAgICAgICAgICAgICAgICAgICAgICAgICAgICAgICAgICAgCiAgICAgICAgICAgICAgICAgICAgICAgICAgICAgICAgICAgICAgICAgICAgICAgICAgICAgICAgICAgICAgICAgICAgICAgICAgICAgICAgICAgICAgICAgICAgICAgICAgICAKICAgICAgICAgICAgICAgICAgICAgICAgICAgICAgICAgICAgICAgICAgICAgICAgICAgICAgICAgICAgICAgICAgICAgICAgICAgICAgICAgICAgICAgICAgICAgICAgICAgIAogICAgICAgICAgICAgICAgICAgICAgICAgICAgICAgICAgICAgICAgICAgICAgICAgICAgICAgICAgICAgICAgICAgICAgICAgICAgICAgICAgICAgICAgICAgICAgICAgICAgCiAgICAgICAgICAgICAgICAgICAgICAgICAgICAgICAgICAgICAgICAgICAgICAgICAgICAgICAgICAgICAgICAgICAgICAgICAgICAgICAgICAgICAgICAgICAgICAgICAgICAKICAgICAgICAgICAgICAgICAgICAgICAgICAgICAgICAgICAgICAgICAgICAgICAgICAgICAgICAgICAgICAgICAgICAgICAgICAgICAgICAgICAgICAgICAgICAgICAgICAgIAogICAgICAgICAgICAgICAgICAgICAgICAgICAgICAgICAgICAgICAgICAgICAgICAgICAgICAgICAgICAgICAgICAgICAgICAgICAgICAgICAgICAgICAgICAgICAgICAgICAgCiAgICAgICAgICAgICAgICAgICAgICAgICAgICAgICAgICAgICAgICAgICAgICAgICAgICAgICAgICAgICAgICAgICAgICAgICAgICAgICAgICAgICAgICAgICAgICAgICAgICAKICAgICAgICAgICAgICAgICAgICAgICAgICAgICAgICAgICAgICAgICAgICAgICAgICAgICAgICAgICAgICAgICAgICAgICAgICAgICAgICAgICAgICAgICAgICAgICAgICAgIAogICAgICAgICAgICAgICAgICAgICAgICAgICAgICAgICAgICAgICAgICAgICAgICAgICAgICAgICAgICAgICAgICAgICAgICAgICAgICAgICAgICAgICAgICAgICAgICAgICAgCiAgICAgICAgICAgICAgICAgICAgICAgICAgICAgICAgICAgICAgICAgICAgICAgICAgICAgICAgICAgICAgICAgICAgICAgICAgICAgICAgICAgICAgICAgICAgICAgICAgICAKICAgICAgICAgICAgICAgICAgICAgICAgICAgICAgICAgICAgICAgICAgICAgICAgICAgICAgICAgICAgICAgICAgICAgICAgICAgICAgICAgICAgICAgICAgICAgICAgICAgIAogICAgICAgICAgICAgICAgICAgICAgICAgICAgICAgICAgICAgICAgICAgICAgICAgICAgICAgICAgICAgICAgICAgICAgICAgICAgICAgICAgICAgICAgICAgICAgICAgICAgCiAgICAgICAgICAgICAgICAgICAgICAgICAgICAgICAgICAgICAgICAgICAgICAgICAgICAgICAgICAgICAgICAgICAgICAgICAgICAgICAgICAgICAgICAgICAgICAgICAgICAKICAgICAgICAgICAgICAgICAgICAgICAgICAgICAgICAgICAgICAgICAgICAgICAgICAgICAgICAgICAgICAgICAgICAgICAgICAgICAgICAgICAgICAgICAgICAgICAgICAgIAogICAgICAgICAgICAgICAgICAgICAgICAgICAgICAgICAgICAgICAgICAgICAgICAgICAgICAgICAgICAgICAgICAgICAgICAgICAgICAgICAgICAgICAgICAgICAgICAgICAgCiAgICAgICAgICAgICAgICAgICAgICAgICAgICAgICAgICAgICAgICAgICAgICAgICAgICAgICAgICAgICAgICAgICAgICAgICAgICAgICAgICAgICAgICAgICAgICAgICAgICAKICAgICAgICAgICAgICAgICAgICAgICAgICAgICAgICAgICAgICAgICAgICAgICAgICAgICAgICAgICAgICAgICAgICAgICAgICAgICAgICAgICAgICAgICAgICAgICAgICAgIAogICAgICAgICAgICAgICAgICAgICAgICAgICAgICAgICAgICAgICAgICAgICAgICAgICAgICAgICAgICAgICAgICAgICAgICAgICAgICAgICAgICAgICAgICAgICAgICAgICAgCiAgICAgICAgICAgICAgICAgICAgICAgICAgICAgICAgICAgICAgICAgICAgICAgICAgICAgICAgICAgICAgICAgICAgICAgICAgICAgICAgICAgICAgICAgICAgICAgICAgICAKICAgICAgICAgICAgICAgICAgICAgICAgICAgICAgICAgICAgICAgICAgICAgICAgICAgICAgICAgICAgICAgICAgICAgICAgICAgICAgICAgICAgICAgICAgICAgICAgICAgIAogICAgICAgICAgICAgICAgICAgICAgICAgICAgICAgICAgICAgICAgICAgICAgICAgICAgICAgICAgICAgICAgICAgICAgICAgICAgICAgICAgICAgICAgICAgICAgICAgICAgCiAgICAgICAgICAgICAgICAgICAgICAgICAgICAgICAgICAgICAgICAgICAgICAgICAgICAgICAgICAgICAgICAgICAgICAgICAgICAgICAgICAgICAgICAgICAgICAgICAgICAKICAgICAgICAgICAgICAgICAgICAgICAgICAgICAgICAgICAgICAgICAgICAgICAgICAgICAgICAgICAgICAgICAgICAgICAgICAgICAgICAgICAgICAgICAgICAgICAgICAgIAogICAgICAgICAgICAgICAgICAgICAgICAgICAgICAgICAgICAgICAgICAgICAgICAgICAgICAgICAgICAgICAgICAgICAgICAgICAgICAgICAgICAgICAgICAgICAgICAgICAgCiAgICAgICAgICAgICAgICAgICAgICAgICAgICAgICAgICAgICAgICAgICAgICAgICAgICAgICAgICAgICAgICAgICAgICAgICAgICAgICAgICAgICAgICAgICAgICAgICAgICAKICAgICAgICAgICAgICAgICAgICAgICAgICAgICAgICAgICAgICAgICAgICAgICAgICAgICAgICAgICAgICAgICAgICAgICAgICAgICAgICAgICAgICAgICAgICAgICAgICAgIAogICAgICAgICAgICAgICAgICAgICAgICAgICAgICAgICAgICAgICAgICAgICAgICAgICAgICAgICAgICAgICAgICAgICAgICAgICAgICAgICAgICAgICAgICAgICAgICAgICAgCiAgICAgICAgICAgICAgICAgICAgICAgICAgICAgICAgICAgICAgICAgICAgICAgICAgICAgICAgICAgICAgICAgICAgICAgICAgICAgICAgICAgICAgICAgICAgICAgICAgICAKICAgICAgICAgICAgICAgICAgICAgICAgICAgICAgICAgICAgICAgICAgICAgICAgICAgICAgICAgICAgICAgICAgICAgICAgICAgICAgICAgICAgICAgICAgICAgICAgICAgIAogICAgICAgICAgICAgICAgICAgICAgICAgICAgICAgICAgICAgICAgICAgICAgICAgICAgICAgICAgICAgICAgICAgICAgICAgICAgICAgICAgICAgICAgICAgICAgICAgICAgCiAgICAgICAgICAgICAgICAgICAgICAgICAgICAgICAgICAgICAgICAgICAgICAgICAgICAgICAgICAgICAgICAgICAgICAgICAgICAgICAgICAgICAgICAgICAgICAgICAgICAKICAgICAgICAgICAgICAgICAgICAgICAgICAgICAgICAgICAgICAgICAgICAgICAgICAgICAgICAgICAgICAgICAgICAgICAgICAgICAgICAgICAgICAgICAgICAgICAgICAgIAogICAgICAgICAgICAgICAgICAgICAgICAgICAgICAgICAgICAgICAgICAgICAgICAgICAgICAgICAgICAgICAgICAgICAgICAgICAgICAgICAgICAgICAgICAgICAgICAgICAgCiAgICAgICAgICAgICAgICAgICAgICAgICAgICAgICAgICAgICAgICAgICAgICAgICAgICAgICAgICAgICAgICAgICAgICAgICAgICAgICAgICAgICAgICAgICAgICAgICAgICAKICAgICAgICAgICAgICAgICAgICAgICAgICAgICAgICAgICAgICAgICAgICAgICAgICAgICAgICAgICAgICAgICAgICAgICAgICAgICAgICAgICAgICAgICAgICAgICAgICAgIAogICAgICAgICAgICAgICAgICAgICAgICAgICAgICAgICAgICAgICAgICAgICAgICAgICAgICAgICAgICAgICAgICAgICAgICAgICAgICAgICAgICAgICAgICAgICAgICAgICAgCiAgICAgICAgICAgICAgICAgICAgICAgICAgICAgICAgICAgICAgICAgICAgICAgICAgICAgICAgICAgICAgICAgICAgICAgICAgICAgICAgICAgICAgICAgICAgICAgICAgICAKICAgICAgICAgICAgICAgICAgICAgICAgICAgICAgICAgICAgICAgICAgICAgICAgICAgICAgICAgICAgICAgICAgICAgICAgICAgICAgICAgICAgICAgICAgICAgICAgICAgIAogICAgICAgICAgICAgICAgICAgICAgICAgICAgICAgICAgICAgICAgICAgICAgICAgICAgICAgICAgICAgICAgICAgICAgICAgICAgICAgICAgICAgICAgICAgICAgICAgICAgCiAgICAgICAgICAgICAgICAgICAgICAgICAgICAgICAgICAgICAgICAgICAgICAgICAgICAgICAgICAgICAgICAgICAgICAgICAgICAgICAgICAgICAgICAgICAgICAgICAgICAKICAgICAgICAgICAgICAgICAgICAgICAgICAgICAgICAgICAgICAgICAgICAgICAgICAgICAgICAgICAgICAgICAgICAgICAgICAgICAgICAgICAgICAgICAgICAgICAgICAgIAogICAgICAgICAgICAgICAgICAgICAgICAgICAgICAgICAgICAgICAgICAgICAgICAgICAgICAgICAgICAgICAgICAgICAgICAgICAgICAgICAgICAgICAgICAgICAgICAgICAgCiAgICAgICAgICAgICAgICAgICAgICAgICAgICAgICAgICAgICAgICAgICAgICAgICAgICAgICAgICAgICAgICAgICAgICAgICAgICAgICAgICAgICAgICAgICAgICAgICAgICAKICAgICAgICAgICAgICAgICAgICAgICAgICAgICAgICAgICAgICAgICAgICAgICAgICAgICAgICAgICAgICAgICAgICAgICAgICAgICAgICAgICAgICAgICAgICAgICAgICAgIAogICAgICAgICAgICAgICAgICAgICAgICAgICAgICAgICAgICAgICAgICAgICAgICAgICAgICAgICAgICAgICAgICAgICAgICAgICAgICAgICAgICAgICAgICAgICAgICAgICAgCiAgICAgICAgICAgICAgICAgICAgICAgICAgICAgICAgICAgICAgICAgICAgICAgICAgICAgICAgICAgICAgICAgICAgICAgICAgICAgICAgICAgICAgICAgICAgICAgICAgICAKICAgICAgICAgICAgICAgICAgICAgICAgICAgICAgICAgICAgICAgICAgICAgICAgICAgICAgICAgICAgICAgICAgICAgICAgICAgICAgICAgICAgICAgICAgICAgICAgICAgIAogICAgICAgICAgICAgICAgICAgICAgICAgICAgICAgICAgICAgICAgICAgICAgICAgICAgICAgICAgICAgICAgICAgICAgICAgICAgICAgICAgICAgICAgICAgICAgICAgICAgCiAgICAgICAgICAgICAgICAgICAgICAgICAgICAgICAgICAgICAgICAgICAgICAgICAgICAgICAgICAgICAgICAgICAgICAgICAgICAgICAgICAgICAgICAgICAgICAgICAgICAKICAgICAgICAgICAgICAgICAgICAgICAgICAgICAgICAgICAgICAgICAgICAgICAgICAgICAgICAgICAgICAgICAgICAgICAgICAgICAgICAgICAgICAgICAgICAgICAgICAgIAogICAgICAgICAgICAgICAgICAgICAgICAgICAgICAgICAgICAgICAgICAgICAgICAgICAgICAgICAgICAgICAgICAgICAgICAgICAgICAgICAgICAgICAgICAgICAgICAgICAgCiAgICAgICAgICAgICAgICAgICAgICAgICAgICAgICAgICAgICAgICAgICAgICAgICAgICAgICAgICAgICAgICAgICAgICAgICAgICAgICAgICAgICAgICAgICAgICAgICAgICAKICAgICAgICAgICAgICAgICAgICAgICAgICAgICAgICAgICAgICAgICAgICAgICAgICAgICAgICAgICAgICAgICAgICAgICAgICAgICAgICAgICAgICAgICAgICAgICAgICAgIAogICAgICAgICAgICAgICAgICAgICAgICAgICAgICAgICAgICAgICAgICAgICAgICAgICAgICAgICAgICAgICAgICAgICAgICAgICAgICAgICAgICAgICAgICAgICAgICAgICAgCiAgICAgICAgICAgICAgICAgICAgICAgICAgICAgICAgICAgICAgICAgICAgICAgICAgICAgICAgICAgICAgICAgICAgICAgICAgICAgICAgICAgICAgICAgICAgICAgICAgICAKICAgICAgICAgICAgICAgICAgICAgICAgICAgICAgICAgICAgICAgICAgICAgICAgICAgICAgICAgICAgICAgICAgICAgICAgICAgICAgICAgICAgICAgICAgICAgICAgICAgIAogICAgICAgICAgICAgICAgICAgICAgICAgICAgICAgICAgICAgICAgICAgICAgICAgICAgICAgICAgICAgICAgICAgICAgICAgICAgICAgICAgICAgICAgICAgICAgICAgICAgCiAgICAgICAgICAgICAgICAgICAgICAgICAgICAgICAgICAgICAgICAgICAgICAgICAgICAgICAgICAgICAgICAgICAgICAgICAgICAgICAgICAgICAgICAgICAgICAgICAgICAKICAgICAgICAgICAgICAgICAgICAgICAgICAgICAgICAgICAgICAgICAgICAgICAgICAgICAgICAgICAgICAgICAgICAgICAgICAgICAgICAgICAgICAgICAgICAgICAgICAgIAogICAgICAgICAgICAgICAgICAgICAgICAgICAgICAgICAgICAgICAgICAgICAgICAgICAgICAgICAgICAgICAgICAgICAgICAgICAgICAgICAgICAgICAgICAgICAgICAgICAgCiAgICAgICAgICAgICAgICAgICAgICAgICAgICAgICAgICAgICAgICAgICAgICAgICAgICAgICAgICAgICAgICAgICAgICAgICAgICAgICAgICAgICAgICAgICAgICAgICAgICAKICAgICAgICAgICAgICAgICAgICAgICAgICAgICAgICAgICAgICAgICAgICAgICAgICAgICAgICAgICAgICAgICAgICAgICAgICAgICAgICAgICAgICAgICAgICAgICAgICAgIAogICAgICAgICAgICAgICAgICAgICAgICAgICAgICAgICAgICAgICAgICAgICAgICAgICAgICAgICAgICAgICAgICAgICAgICAgICAgICAgICAgICAgICAgICAgICAgICAgICAgCiAgICAgICAgICAgICAgICAgICAgICAgICAgICAKPD94cGFja2V0IGVuZD0idyI/Pph4Ms8AAAAgY0hSTQAAeiUAAICDAAD5/wAAgOkAAHUwAADqYAAAOpgAABdvkl/FRgAAGURJREFUeNrsnXmYHFW1wH9VPb3MlplkMmSFLCwhCRhkSwDB7cnmrkRFUYQnbo9NVBB9iD54LMJTBJUnogIiYiIfsqMEgbAnsoRkgEAkCUsy2SfJTJJZuuv9ce68dDrTVbe7q3p6Zs7v++ZLZqq66lb1rVPnntXxPA9FURRld1y9BYqiKH1TBTD71tcrcWxJYAYwBZgA7AU0ATEg08f+NcB84LJQR+F5VI/bj7fvuY6l159N9eiJOmsUZQiwbMVyEZAVxATgROCDwFHA6AI//+7QBaTjkOneQcebL+PG4zprFGWoaZAVwKeBU4EPl7jsXxW29phsGkvbksdpffQ2Eo2jdMYoigrIsvEZ4HzgkIq8O66LE4uz+uGbSXdsIdHQjJdJ66xRFBWQkXI4cAlwbMXeGc8jOXwMbS3zWb/gXhIjx6pwVJQhRn94sX8EPFvRwhHAcXDiCVY9fAs9HZtx4ymdLYqiGmRkjAX+CLyv4u+KlyE5cjxtLU+w4Zm7SY4YA15GZ4uiqAYZCe82WuP7BsRdcVzcqgSrH76Z7o4tuIlqnSmKohpkJBwCPAGUY43qlK49eiSbxrFpyWOse/pOkiPHqfaoKCogI+EwJHi7XAa8EuNwPJyqKmJ1tayedzM9HVuN5zo0Abk/EvA+HhgOxIGNwHpgGbAC2KLTUlEGv4CcBDwWknBcD7QAa4ENSDZNLjXAw6VojjgO1WMms/qhP7DuqTtJNY8LQzjuA5wOfAg4NGDfVcAi4H7gH8DLfeyTAo7x+e62Ao/r1FaU/2caMNFnewuwspwCMgb8HSjFeLcI+KsRFv8ygjEyPC9D9ajJrJk/l1d/fgZusho3nioltMcBrgbOBBKWnxlrfk4AXkRst7k0A3/zOcYaCs9AUpTBzAXAl3y2fw+4spwC8jajORXDA8C1wIPlvIPJEWNYv+AeWq4+BTeeIl7fVIpw3BO4K4+As+XpPH9PGy2xPs/2tfo8KMoubA7Y3lHOJfZsJEOmUJYD5xmtsezEaoax+ZWn6Wnvom7inqUIxzqzxJ1Q4pD+4rPNb92v9esUpbBnwiuXgKwBbijic38CvmY0o75wgelGK00Be5hlvJezpF1IkfY3L91DVW0jsZRTasbM3BCE4yYfDVJRlDIRtoC8HGgs8DOXAhfl2XY8cBLi4NjL4lgrEOdQfzHbjNmWLiPYc8sE/QPYrtNTUQaPgBwDnFXgZ84Hrurj7x8FLgSOKPB47cUp4B5OLCYB4aVVWL/SYp9W4BrgUeAdox03AgcCRwOfAubp1FSUwSUgv09hgdrX9SEcXeB64KtFjqGnmA858SSdG1tpa5lPLFVb7PX/m4X2+qQR/pty/v4m8BKSinlhsdehKEplCshhwFcK2P9Z4OycvzUgHuwjyn0TnFiM9LatbG99A7cqUexhghxT64Dj8PGYGTbptFSUyiCsXOyTsQ8I9xC7YjbVRrs6oj9ugpfuIVYzjHj9CDLpopW3owO2/7eFcFQUZRAKyM8WsO9lwNs5f7sH8VL3C/Ha4Wx9fSHb3nmNqpr6Yg4xCumdk49O4Badbooy9ATkKOC9lvtuQbzW2Xwb6UHTb8RSdWxftYzODa3FVu7ZF3/764u6dFaUoSkgP1DAcW4AduQI16v6+yZ4mR5iqVrcRKLYGMig1L6XdaopytAUkIXYDX+b8/v5hFGibCd79NN9HBawfbNONUUZeIThxZ5hud+LwKtZv9cA/17E+dqQjJvssTvsLJBRqPqIU5WgqrahlBjIxoDturxWlCEoIBPYp9XNz/n9g0hojy0vIo2+nkICwnPHHqPQij+ehxNP4sYd2le2gFO0Qh1UE01rPCrKEBSQY8yPDQtzfn9/Aef5OxJDGLKBIUZVdT3Lb7uMlXdcRaJhj0q9z4qi9AOl2iCbsa91+EbO7wdZfm4jkn4XOvHaBjreepUVcy4nlqrGjcd1RiiKEppmU2O5X08fy9+Rlp+dQ1QB1o5DpqeLWHU9OITZWkFRFNUgsY2JybB7fvFYy8+uiOzqPQ/HjeHEqkotUqEoimqQRX/e6WMp/lXgKKTkV75jdyKVbyqdoBfFYFdNY+YaHSSV1BvA1+AW8OLXsZemlFX8XPETcHHgSJ/tT1JYebEtQC07G1ctBl7xER6O+bKnERxnmMtq4LVgvTZDrLoOJxbH6+kq5T7uKHH7QKHGfH9TkY6Vo4Fx5u/ZAnIVUtbtKeAZ4LkKvJYDkPz5o5CGTs1ZQqYbaeK0HHgIaT7XVkFjn4U4OQ9BKkjVm2clBmwzq64WM+6H+lkIHQzMBN5j5sroHAHZap7X58x8qahC0X4C8iLyF7IF6dR3n+V5upFg6Z9TXOxjoXSYL8M3QNtJJNn29lLS2zbjJqxqbRxthMMIpG1rk3mwDgj43HeBz1sc/2JK6cwYDSOAY4FPmoluE9a1v/m395qfQZIEbgxhPB8y96kvLjAvbj9OBU4jOD22tzbAf5gH+E9IQej1JYz968ApeZ6PU5D6oPloBL6BFIY5MOA8M4CPIyUIlwK/Bn5W5jnzZTPWQy3nysnm3yVIu5GbidK8FoKAPDbgs2Ppu/1qviVmLbB3ma5rBxYVud1kLW2vPEHXpg1Uj5tkY4e83GgchTIR/7aTvUygcphpXmazKbxKfF8azyzzgJ8DPFHCsSb6fAeH+gjIjwH/hX1iQzZjkH5JXwDOQIqrFMNBPmOf5CMgz0HqhBbT930K8FPgc0apaYl43pxrBHNzCZr9AeZ6Lwd+XCn2gGySFg/rNuzTBB0jJMsVMP0k+W2bu2j4Val6nBi2TprWMmi+/c2JSFvZZ4wwaAzx2AcjPYPOiugeDc/ztzlIl8kZJY5/FHC3uS/F4JdR1ZBHE3wascOPKnHsh5tl7JERzZtDgOeNptocwvGSwI+Af5pVW0UJyH0Z2L2Vl9gIR3DAcbQP4M439x3GbHJsxOe61mhFYZMb6X8MUql9dsjnucEs9cMkN6rjNCS5YlaI50gCj2AfQWLLacACSmtz7Cd4FyI274oRkFMH+MMeuIxwkzXsWLOctiXzqaprYAgzwbz1XyKigPw8XEP4Ze72zPr/6YiTYnxE45+LmI3CYlzW/y8DfsfuzdzCIIHYU8Pi+2asboRzpdYI9gPL/XDks0G+a4A/9C8FrvndGOkd7XS1rcWNW7dZiLpaUG0/3KsZiN2oEDzEgL4ccVo45mcCsB/2OfZzEfteZ0jX0utpOxc7p8Q2JFMrjfQzbyrgXA2Is+j8kMbeu475PeLgCGJL1pK9kcLqGhwDfNqsGErhP5H6CDa8hdieXwDWmns+CrG9HmMh/GqRbp97U8baBoNRQK7HJsRHpCS4sUJixP9qvpxsO1gPEop0kM/nFhmttspHk0+wa7WjcnE34jkP0ubWIjnxDyK2rHxjbUYcIudYTPrh5iG7KKRrqUfqi37HZ583keZoj5nvZBViH29A+q4fjcTo2qyizgauMEK2VKYBvwwQji8Y7W8BEiK3NuueT0c889/Azl754xIF5OctheMTiJPobvxjNI8099OvO8FIxLv9yf4UkC47Xe8DdXkd6KDJdG6nevRk6ifPYO38OcSq62wcNT81P7mczu61LrO5Hgm1qFS+iYSD5Hsob0QcHTYhLuvMvfi9EVbnBez/bSNkwnBQzTQ/+cZ1GfCbPOfabAT/c0g42qVm+ehHEgnPuTaEsfs1fXvZCLQ5Ptf2qPm5DvgVwW1QpiOOmwVFjHWKecn40QN8C/iF5TGfMj93A7eS3wH8CcRG/vdyPBh92Q32N8ukIOqwd28Yj0ifXsawecNqQOkeYokUw2cYxam0VMO6Clw6F8JrfTzkLUhoyMHmgSs0/i9jhN/VAftVm/NEyZ1mVXSNpSD2gB+we3uQvvh4xGO/ygizOZb7bzT30yZGuVjnVZANsxVxLv2iiGPfBrwP/+yzn5frwXB9JncQ/ypAQMaQ2MQXynBND9otrx0617/DHkd+iqZDj6dr87oo7qPt9krggqz/X4R4tf8cwnG/a0wMfpwc4XX9AHE+FROidRHBWUCzKMx2WcgL5nMUb+P8rMXS//1FHPdM/L3VHcZMUUr21Hz6DqjPVuKOK8dDUZVHnZ+CeNU683ymG+ltfVgB52kwdqm55stfg3/uqGv2S2GXahhH7IOLbC8+3b2DZPOeVI+ezPqFD0JDM0OYHWb50obY58LkW4iBPR9HINkXG0M+78nA7SUe42LgXp/tNYj9OcwMqPVIPOrCEo7RYUw7P/DZ50Aj3G0LTTcAVwbs82FgWQj34E9I1tNxPmahv/WHgMRcoM1F2i6Z4+YB6PVkYS7+vT5Lnl5BfDERNb1y3BiZru10b92I4w4EJS9y7orouI8gHu9JPkJmJvBASOdLAx+xXk348wCSauhXGHp6iAJyJRJj+XoIx7o1QEAmjDL0lOXxvol/icOfhfxy/a6PgDzeCOxI+z2VWs1nqZn4w3yW5S4SEpLrBPgJdmEzG4gw3chxY7jxJJmeDI4bK7aroRLMvfhn0EwLSUCuQeyCz4a41J0HfNFnn0khnWsJ0iV0XUjHe9UoF9N89plsKSBjiJc5H+tyzDRhsBhxIh2eR7gfh71ttihKVZtWmpt/gHmL9vVzoFmK51a0sbUJRVoJp7t9E3t98ts0TD2M7q0bUCIjqErLPiGd5w8hCsdegmznY0I6z6UhCsdeng/YbhtIfzz+2XX/Y1Z8YePnEDqm3EvsyWZAtdjVlfOMittNfre8x047oosYYL+JRTGJLCE8FQkriOfRVF3EXnoGBTqC0ts7qBm7D9WjJtL+r0VU1TaqKIuGoCVjWIU6oqi9GRQZMSyi57EcY6+zPI5fpEE3Ej4VBX6FTQ4pt4A8IY86Gyb7GAFpqxm2I14zmzzPfQsVkE4sRs+2LaQ7t+HEYiiRsSGkBzWIKNLz1gRsH17BY387YHu9xTES+OeeP0j4DrZsM8FGxIeRy95ILGpnVJM2d4k9pQwPyjsFLu+rkJSwQGUQqfyhVK6A7AgQkE6Fjn0b/iFtldy1MihpYoTFMQ7BPzvnrgjH346EFOYb+8RyapADOcVwJZZB4kqkVCOJBqMRk82+SBGJ0QEaUgPiCOipwGvabLSUVBmX9WERFBhvc78PCtgetWKSzy4bQ9Isl5ZDQMbx93ZVOi0o5SaFmD4ONFrGdCMM9yriWBo+EA1tIRzjgIAV4aKIr2F1iRpwKAJyP8IpdNlfvFTMh7xMGjdRjZuo1hAfO2YgubBHIgHeo4bANTsDeOxhGNYn+2xrRYpI9JcBv7pcAnL6AJ/ERWmQVbWNtK9YTMeKJVTVDum6kH5MR1LXTqQMnkOl4vCLV34XUhEpypeI218rj14BWUdw46lKZ0kxH4qlatm+Zjnb1ywn2TRGq4vvyseQ8lnH660YsiTx99LHB/PFV2Utmw4r8znD/EwbRdZS9DJpYskaYskavHQax9VQH6Sayg8prphBL92I7agFSVvdihQ6GKa3d0DhVriJIdIHtlfw7Etwe8awaCjiQQvS65ZRQhR/LFmD42gutnkQfmm0xkJ5FfFmPoekty1Gii5kfy+nqYAccHhU9roq0urivQLyQTOZ9y9wTd+NhNYEhTkkkHzVBDudKTWW5xiL1Ig717wtvD7ecI8Xqz26iRTdWzeQ7tqOm6odyg/CXkixUtvOf9uQAg33Ih0Qg5xk/WnIV0p/cVYqa8shIFvNRL+3iGPMIH98WC/rzMNXzFK7CYnlCr1IpluVJLOjg9X/uAXPywzlij5jkCosEy32bUGqhf8FiT0tRBNRBh9vAF/qR+12cTkEZLHMIrgIQbaG8lYRD0x3NLc2Q6p5PK2P3c7GF+aRGjl+qE7wBJLvGiQc30JKZ/1BZcKQohNJ9ZvoM3+eHKwXX6rKlCxg37pKunAnnqRnRwer5t0kjpmh65y5Hv84N5ACJgeqcBySeAHL2HGID0MFZB/YpoV1U0kpZF6GZNN41j97N20vPUKyaWypPWkGKgcgDcf8uArpYLdZZcWQZYWfrqECcrBddDxFens7qx++BSdWBc6Q1R6/E7B9HuH1fVYGLkExxkeogBws64VMhkTTWNYvuJdNix8jOWIseJmhOOlTwEcDVgdfVNmgEFx097jBeuFDTkC68STp7VtZ/fBNEvs4dD3X78Y/0f8BiusEqAw+XsC/0vlhhNd2QgVkf2qPqZHjWb/wfjYtfpTkiNFD1fYIEvPqx+MqFxTDDsTc4sdZKiAHOLFkiq5Nrax68Dc4btVQ9lyDeB/9WBby+So9I0PxJ6h97tepsEgVFZAFC8gatq9ZzrZ3lhKvHzGUtUcIDu4Pu0r2RpSBzH34h/tUI21fVUAO5CW2G08SS9Vp7cfgnkATQj7fBURc3FSJlDTSudCPryC1QlVAKgOe1QHbw2zedh1wBYO8NNYQ4FqkKpMfdxCceDBg5JwKyMH5prchyMb4EaCxxLFMRNr8nqlfy6BZdVwQsE8dkte/fwTn3zuiZyKtAnLwEMO/Kk7C8jgvIB3j8lGNFKUoltPNOY7Wr2xQcT1SvcmP8cCzwEkhnbMZ+F+kjF4xQelB9m8VkIOIdvz7AO9jqfltMW96Pz5hlseFcAhSFeq3IWigSmXyOYLbyQ4D5gI3AVOLPM9U4ErgFeBr5uV/SRHHCersOEsF5OBhE/7exKR521Yjnmg/jfJXFuc702gDp/gIvNHAqUhd0X8CH9avaVCzsoDv+FSkRN5c8/+x5K8vWY20mD0L8Zq3IKmuTVn7fND8FMJbAdu/yM62IrXZcrFKv+sByeKAt/JngWOQdMHXfSbU/UgF8KBGXIcjlXy2IJXDVyD2qGHAFMQoH1TZ6S6kNN4V+vUNCuYZgXezxb6OWW6fZDTPt5A6khvM8rbGCM69kcLKQVyHNJKzjdN7MWB7HMkcexXp0nk2cGsYArKUQMKMzrGieRj4TMA+Y8y/expBlq80/cnAa5bnHWaEZaEe7huBM8yYVEAOHm5BvNp/xj5CIWEE4d4lnHeqWdHYlt97zSgKQVWHeh1LB/cKyHKVO3NzzuVi70xQLXd37ijw5eTnUXwd+HJE41xtJvIZWcuXbv36BhV3Ija8ljKe8waCHUW53FSgACYMAdlcgCDtzrE12Dbv2qJzcDc2ABeHJCAxy6TTQh7jr5F6k3/M+tubSO+jgYij0y4vz5vv+icRn+d+4EjEYfN6gZ+9BrHf27Bfr2JWqoD8VAFCrjVHzU5ZfnZTqLfY8/AymbDne5Cwb4xgslxi7CY22HSsvAkxkJdSpMJDqo8fhuTm5oZXdPlovntZfilB+b5NEdzrKvxtrOMsjxOUSVQfwdiDmuPtEeK5LgDehZhUOkI65lazlH8P4hh6usjjbEPK+9mY9iYjNs6Slq+HFqB1rDED7GVkAdrnjvC+P3n+vLRNJ9mCeNzYLLbmmfSPRvRGPRG4FDjPaOX52MfyeIsQ584XzLL7A5Yv0ZeAe5Duky8H7HspMDNnPqSMdmkT5P4CEp/ZmfMlOkYY3B3Bfd6EZJHU9GEiqMa+J/v95lo7+piYSSQCIGyWAr8z48708bKZF/L5FhuTyiXAbDNHjwiYn33Ji4VIuNh9wNshje1JM/euwye0xzARWOR4nsfsWwvVVnHNMs9WM/otkqfZywlmstgwE1gQinh0XeJ1I3jtxvNofeSPJJvGMUgYD3zMaIC9XsA0UsPvJaNpriziuJPM/Z9pjluX9dJah9idFhihpSh+GvZUpAPqRKMcJYzArjKyZCPiTHnRLJ/bIh7T+5G88T0R27hjVrqrgIeAfy5bsXxzsRqkh9itzrHc/76c348qQHt8I7TVdTqNm6imedYnWDP/z1JJ3BkUoaBvYxfTWCjLzc/t+owrJfCO+ZlXQWN6xPwEaoLFCshzkSj3INr60BZPsDzPMsI06jsOXZvXUTdpBvV7H0z3Vq3ApShK+AKyl+8hXe/8uIJdU+P2Q+KMbHg+7AtOd3ZQPXoiexx1Et0d7dJ2QVEUJQIBCZIKlE+TXI+417MppDR76A3JHTdG99aNNEyZSXLkGNKd23QWKIoSmYDs1ST7ypA4OUd7bGRXZ00Q90Vx0d2b1zNs/1mMOurTdG5oHSx2SEVRKlRAAlzIroGiP2R3o+w12Mc/Po4YdiPBS3cxYsYHqKqrx+vp0pmgKMpuhJ3G11tMM8nuZYneiyS323JLZFftOHRv2UD1uP1INI4h3bEJJ6YZjYqiRKdBZgvJc3P+NhLJ2bSlnV1T1EIn09NFoqGZmnH70N3RBo5mkimKEr2AzCUF/A0YXsBnrgW2RyoguzuJ1zfRdOgJkMmANvFSFKUfBORc7MN6QJw6V0c9KMdx6WnfRN2kg4gPH00mrUVmFEUpv4BcWuD+FxN2gYp8eB6OG8ONJ1WDVBSlXwTkd7DLuAHJnLmyXBff3bGZuonTaZx2JF1bNKtGUZTyC0iQOEmbWnGzy3r1XgY3Fsfr6cLr6dHZoChKvwhIEO+2X1rihQT3jggXx8HLpKkZN4VYMgWepzNCUZR+EZAgaYl9ZdzMoZ96lXieR8O09xBL1eJ52iZHUZT+E5C9mmL2cvsxpAtfv5He0W6qjCuKouykv9JHLkAqDE9hZz9aRVEUFZCG25Hqwmr4UxSlIvm/AQCXVMe4YzTuogAAAABJRU5ErkJggg==;" vertex="1" parent="1">
          <mxGeometry x="570" y="580" width="229.6" height="70" as="geometry" />
        </mxCell>
        <mxCell id="E6gcX0sjezPecVc_Mte1-18" value="" style="image;sketch=0;aspect=fixed;html=1;points=[];align=center;fontSize=12;image=img/lib/mscae/Azure_Repos.svg;rounded=1;" vertex="1" parent="1">
          <mxGeometry x="909" y="178" width="45" height="50" as="geometry" />
        </mxCell>
        <mxCell id="E6gcX0sjezPecVc_Mte1-19" value="" style="image;sketch=0;aspect=fixed;html=1;points=[];align=center;fontSize=12;image=img/lib/mscae/Azure_Artifacts.svg;rounded=1;" vertex="1" parent="1">
          <mxGeometry x="909" y="260" width="50" height="50" as="geometry" />
        </mxCell>
        <mxCell id="E6gcX0sjezPecVc_Mte1-20" value="" style="image;sketch=0;aspect=fixed;html=1;points=[];align=center;fontSize=12;image=img/lib/mscae/Azure_Pipelines.svg;rounded=1;rotation=-90;" vertex="1" parent="1">
          <mxGeometry x="916" y="342" width="50" height="50" as="geometry" />
        </mxCell>
        <mxCell id="E6gcX0sjezPecVc_Mte1-21" value="" style="image;sketch=0;aspect=fixed;html=1;points=[];align=center;fontSize=12;image=img/lib/mscae/General_Storage.svg;rounded=1;" vertex="1" parent="1">
          <mxGeometry x="200" y="600" width="50" height="50" as="geometry" />
        </mxCell>
        <mxCell id="E6gcX0sjezPecVc_Mte1-22" value="" style="image;sketch=0;aspect=fixed;html=1;points=[];align=center;fontSize=12;image=img/lib/mscae/General_Storage.svg;rounded=1;" vertex="1" parent="1">
          <mxGeometry x="280" y="600" width="50" height="50" as="geometry" />
        </mxCell>
        <mxCell id="E6gcX0sjezPecVc_Mte1-23" value="" style="image;sketch=0;aspect=fixed;html=1;points=[];align=center;fontSize=12;image=img/lib/mscae/General_Storage.svg;rounded=1;" vertex="1" parent="1">
          <mxGeometry x="370" y="600" width="50" height="50" as="geometry" />
        </mxCell>
        <mxCell id="E6gcX0sjezPecVc_Mte1-24" style="edgeStyle=orthogonalEdgeStyle;rounded=1;orthogonalLoop=1;jettySize=auto;html=1;exitX=0;exitY=0.5;exitDx=0;exitDy=0;entryX=0.995;entryY=0.425;entryDx=0;entryDy=0;entryPerimeter=0;" edge="1" parent="1" source="E6gcX0sjezPecVc_Mte1-10" target="E6gcX0sjezPecVc_Mte1-3">
          <mxGeometry relative="1" as="geometry" />
        </mxCell>
        <mxCell id="E6gcX0sjezPecVc_Mte1-25" style="edgeStyle=orthogonalEdgeStyle;rounded=1;orthogonalLoop=1;jettySize=auto;html=1;exitX=0.5;exitY=0;exitDx=0;exitDy=0;entryX=0.775;entryY=1;entryDx=0;entryDy=0;entryPerimeter=0;" edge="1" parent="1" source="E6gcX0sjezPecVc_Mte1-5" target="E6gcX0sjezPecVc_Mte1-2">
          <mxGeometry relative="1" as="geometry" />
        </mxCell>
        <mxCell id="E6gcX0sjezPecVc_Mte1-26" style="edgeStyle=orthogonalEdgeStyle;rounded=1;orthogonalLoop=1;jettySize=auto;html=1;exitX=0.5;exitY=0;exitDx=0;exitDy=0;entryX=0.203;entryY=1;entryDx=0;entryDy=0;entryPerimeter=0;" edge="1" parent="1" source="E6gcX0sjezPecVc_Mte1-4" target="E6gcX0sjezPecVc_Mte1-2">
          <mxGeometry relative="1" as="geometry" />
        </mxCell>
        <mxCell id="E6gcX0sjezPecVc_Mte1-27" value="" style="image;sketch=0;aspect=fixed;html=1;points=[];align=center;fontSize=12;image=img/lib/mscae/Kubernetes.svg;rounded=1;" vertex="1" parent="1">
          <mxGeometry x="447" y="425" width="93.75" height="90" as="geometry" />
        </mxCell>
        <mxCell id="E6gcX0sjezPecVc_Mte1-31" value="&lt;font style=&quot;font-size: 18px;&quot;&gt;Kubernetes&lt;/font&gt;" style="text;html=1;align=center;verticalAlign=middle;whiteSpace=wrap;rounded=0;" vertex="1" parent="1">
          <mxGeometry x="589" y="460" width="60" height="30" as="geometry" />
        </mxCell>
        <mxCell id="E6gcX0sjezPecVc_Mte1-32" value="&lt;font style=&quot;font-size: 18px;&quot;&gt;代码仓库&lt;/font&gt;" style="text;html=1;align=center;verticalAlign=middle;whiteSpace=wrap;rounded=0;" vertex="1" parent="1">
          <mxGeometry x="964" y="194" width="83" height="30" as="geometry" />
        </mxCell>
        <mxCell id="E6gcX0sjezPecVc_Mte1-33" value="&lt;font style=&quot;font-size: 18px;&quot;&gt;容器镜像&lt;/font&gt;" style="text;html=1;align=center;verticalAlign=middle;whiteSpace=wrap;rounded=0;" vertex="1" parent="1">
          <mxGeometry x="966" y="280" width="74" height="30" as="geometry" />
        </mxCell>
        <mxCell id="E6gcX0sjezPecVc_Mte1-34" value="&lt;font style=&quot;font-size: 18px;&quot;&gt;自动化流水线&lt;/font&gt;" style="text;html=1;align=center;verticalAlign=middle;whiteSpace=wrap;rounded=0;" vertex="1" parent="1">
          <mxGeometry x="978" y="357" width="60" height="30" as="geometry" />
        </mxCell>
      </root>
    </mxGraphModel>
  </diagram>
</mxfile>
